<svg width="334" height="179" viewBox="0 0 334 179" fill="none" xmlns="http://www.w3.org/2000/svg">
<g filter="url(#filter0_d_17160_803)">
<rect x="7" y="5.92969" width="320" height="164" rx="3" fill="white"/>
</g>
<path d="M24.496 138.042C24.496 137.61 24.784 137.298 25.132 137.298C25.396 137.298 25.636 137.394 25.768 137.526L26.2 136.734C25.864 136.458 25.408 136.29 24.964 136.29C24.004 136.29 23.332 136.986 23.332 137.982V138.726H22.396V139.734H23.332V144.93H24.496V139.734H25.96V138.726H24.496V138.042ZM28.4362 139.914V138.726H27.2482V144.93H28.4362V141.402C28.5442 140.322 29.4562 139.614 30.7402 139.614V138.582C29.6722 138.582 28.8322 139.098 28.4362 139.914ZM34.6517 145.074C36.4157 145.074 37.9037 143.586 37.9037 141.822C37.9037 140.058 36.4157 138.582 34.6517 138.582C32.8757 138.582 31.3757 140.058 31.3757 141.822C31.3757 143.586 32.8757 145.074 34.6517 145.074ZM34.6517 144.042C33.5117 144.042 32.5637 143.034 32.5637 141.822C32.5637 140.622 33.5117 139.614 34.6517 139.614C35.7677 139.614 36.7157 140.622 36.7157 141.822C36.7157 143.034 35.7677 144.042 34.6517 144.042ZM46.2297 138.582C45.2937 138.582 44.5017 139.062 44.2137 139.83C43.8537 139.062 43.1217 138.582 42.2217 138.582C41.4297 138.582 40.7817 138.978 40.4697 139.59V138.726H39.2817V144.93H40.4697V141.054C40.4697 140.202 41.0937 139.614 41.9817 139.614C42.7617 139.614 43.3017 140.25 43.3017 141.162V144.93H44.4657V141.054C44.4657 140.202 45.0897 139.614 45.9777 139.614C46.7577 139.614 47.2977 140.25 47.2977 141.162V144.93H48.4617V140.982C48.4617 139.578 47.5257 138.582 46.2297 138.582ZM53.6023 144.93H54.7783V136.542H53.6023V144.93ZM59.1125 138.582C58.4285 138.582 57.6485 138.762 56.7605 139.206L57.1925 140.082C57.7325 139.806 58.3325 139.566 58.9445 139.566C60.1805 139.566 60.5405 140.394 60.5405 141.174V141.366C59.9405 141.162 59.2805 141.03 58.6685 141.03C57.3005 141.03 56.1845 141.858 56.1845 143.094C56.1845 144.306 57.1565 145.074 58.4765 145.074C59.2325 145.074 60.0845 144.726 60.5405 144.078V144.93H61.7045V141.174C61.7045 139.638 60.7805 138.582 59.1125 138.582ZM58.7045 144.138C57.9245 144.138 57.3245 143.73 57.3245 143.058C57.3245 142.386 58.0205 141.918 58.8485 141.918C59.4605 141.918 60.0365 142.002 60.5405 142.158V142.986C60.3365 143.754 59.4725 144.138 58.7045 144.138ZM65.6666 145.074C67.0226 145.074 68.0186 144.33 68.0186 143.154C68.0186 141.918 66.9266 141.582 65.9066 141.282C64.8626 140.958 64.4786 140.814 64.4786 140.334C64.4786 139.866 64.9586 139.602 65.5706 139.602C66.1106 139.602 66.7346 139.806 67.3346 140.178L67.8626 139.302C67.1906 138.858 66.3746 138.582 65.5706 138.582C64.2506 138.582 63.3026 139.326 63.3146 140.466C63.3146 141.474 64.0226 141.882 65.4506 142.278C66.2186 142.494 66.8546 142.674 66.8546 143.25C66.8546 143.73 66.3746 144.054 65.6786 144.054C64.9466 144.054 64.2386 143.778 63.5786 143.298L63.0146 144.15C63.7586 144.75 64.7546 145.074 65.6666 145.074ZM72.3032 143.814C72.1712 143.946 71.9312 144.042 71.6672 144.042C71.3192 144.042 71.0312 143.73 71.0312 143.298V139.734H72.4952V138.726H71.0312V137.022H69.8672V138.726H68.9312V139.734H69.8672V143.382C69.8672 144.378 70.5392 145.074 71.4992 145.074C71.9432 145.074 72.3992 144.906 72.7352 144.63L72.3032 143.814ZM78.9516 144.93H80.0436L81.5436 140.322L83.0316 144.93H84.1236L86.2116 138.726H84.9996L83.5836 143.346L82.0476 138.726H81.0396L79.5036 143.346L78.0756 138.726H76.8636L78.9516 144.93ZM89.9502 144.018C88.8822 144.018 88.1262 143.274 87.9702 142.242H92.8542C92.8542 140.022 91.7622 138.582 89.8662 138.582C88.1502 138.582 86.7702 139.95 86.7702 141.81C86.7702 143.718 88.2342 145.074 89.9622 145.074C90.8382 145.074 91.9182 144.702 92.4702 144.114L91.7262 143.346C91.3542 143.73 90.5982 144.018 89.9502 144.018ZM89.9142 139.638C90.9822 139.638 91.5702 140.334 91.7022 141.294H87.9822C88.1742 140.286 88.9542 139.638 89.9142 139.638ZM97.0752 144.018C96.0072 144.018 95.2512 143.274 95.0952 142.242H99.9792C99.9792 140.022 98.8872 138.582 96.9912 138.582C95.2752 138.582 93.8952 139.95 93.8952 141.81C93.8952 143.718 95.3592 145.074 97.0872 145.074C97.9632 145.074 99.0432 144.702 99.5952 144.114L98.8512 143.346C98.4792 143.73 97.7232 144.018 97.0752 144.018ZM97.0392 139.638C98.1072 139.638 98.6952 140.334 98.8272 141.294H95.1072C95.2992 140.286 96.0792 139.638 97.0392 139.638ZM106.996 138.726H105.556L102.52 141.894V136.542H101.344V144.93H102.52V143.334L103.516 142.326L105.46 144.93H106.876L104.32 141.534L106.996 138.726Z" fill="#6A7888"/>
<path d="M234.912 119.93H236.124V111.686H234.912V119.93ZM241.055 113.582C240.215 113.582 239.459 114.014 239.087 114.626V113.726H237.899V119.93H239.087V115.91C239.183 115.178 239.927 114.614 240.791 114.614C241.631 114.614 242.219 115.262 242.219 116.186V119.93H243.383V115.982C243.383 114.578 242.423 113.582 241.055 113.582ZM247.147 119.93H248.263L250.879 113.726H249.595L247.699 118.55L245.767 113.726H244.483L247.147 119.93ZM254.691 120.074C256.455 120.074 257.943 118.586 257.943 116.822C257.943 115.058 256.455 113.582 254.691 113.582C252.915 113.582 251.415 115.058 251.415 116.822C251.415 118.586 252.915 120.074 254.691 120.074ZM254.691 119.042C253.551 119.042 252.603 118.034 252.603 116.822C252.603 115.622 253.551 114.614 254.691 114.614C255.807 114.614 256.755 115.622 256.755 116.822C256.755 118.034 255.807 119.042 254.691 119.042ZM259.921 112.694C260.305 112.694 260.629 112.358 260.629 111.974C260.629 111.602 260.305 111.266 259.921 111.266C259.513 111.266 259.201 111.602 259.201 111.974C259.201 112.358 259.513 112.694 259.921 112.694ZM259.321 119.93H260.509V113.726H259.321V119.93ZM265.155 120.074C266.079 120.074 266.883 119.69 267.483 119.078L266.679 118.346C266.295 118.778 265.743 119.042 265.167 119.042C264.027 119.042 263.091 118.034 263.091 116.822C263.091 115.622 264.027 114.614 265.155 114.614C265.731 114.614 266.271 114.866 266.643 115.286L267.447 114.542C266.859 113.954 266.055 113.582 265.167 113.582C263.391 113.582 261.891 115.058 261.891 116.822C261.891 118.586 263.391 120.074 265.155 120.074ZM271.599 119.018C270.531 119.018 269.775 118.274 269.619 117.242H274.503C274.503 115.022 273.411 113.582 271.515 113.582C269.799 113.582 268.419 114.95 268.419 116.81C268.419 118.718 269.883 120.074 271.611 120.074C272.487 120.074 273.567 119.702 274.119 119.114L273.375 118.346C273.003 118.73 272.247 119.018 271.599 119.018ZM271.563 114.638C272.631 114.638 273.219 115.334 273.351 116.294H269.631C269.823 115.286 270.603 114.638 271.563 114.638ZM278.124 120.074C279.48 120.074 280.476 119.33 280.476 118.154C280.476 116.918 279.384 116.582 278.364 116.282C277.32 115.958 276.936 115.814 276.936 115.334C276.936 114.866 277.416 114.602 278.028 114.602C278.568 114.602 279.192 114.806 279.792 115.178L280.32 114.302C279.648 113.858 278.832 113.582 278.028 113.582C276.708 113.582 275.76 114.326 275.772 115.466C275.772 116.474 276.48 116.882 277.908 117.278C278.676 117.494 279.312 117.674 279.312 118.25C279.312 118.73 278.832 119.054 278.136 119.054C277.404 119.054 276.696 118.778 276.036 118.298L275.472 119.15C276.216 119.75 277.212 120.074 278.124 120.074ZM286.922 113.042C286.922 112.61 287.21 112.298 287.558 112.298C287.822 112.298 288.062 112.394 288.194 112.526L288.626 111.734C288.29 111.458 287.834 111.29 287.39 111.29C286.43 111.29 285.758 111.986 285.758 112.982V113.726H284.822V114.734H285.758V119.93H286.922V114.734H288.386V113.726H286.922V113.042ZM290.862 114.914V113.726H289.674V119.93H290.862V116.402C290.97 115.322 291.882 114.614 293.166 114.614V113.582C292.098 113.582 291.258 114.098 290.862 114.914ZM297.077 120.074C298.841 120.074 300.329 118.586 300.329 116.822C300.329 115.058 298.841 113.582 297.077 113.582C295.301 113.582 293.801 115.058 293.801 116.822C293.801 118.586 295.301 120.074 297.077 120.074ZM297.077 119.042C295.937 119.042 294.989 118.034 294.989 116.822C294.989 115.622 295.937 114.614 297.077 114.614C298.193 114.614 299.141 115.622 299.141 116.822C299.141 118.034 298.193 119.042 297.077 119.042ZM308.655 113.582C307.719 113.582 306.927 114.062 306.639 114.83C306.279 114.062 305.547 113.582 304.647 113.582C303.855 113.582 303.207 113.978 302.895 114.59V113.726H301.707V119.93H302.895V116.054C302.895 115.202 303.519 114.614 304.407 114.614C305.187 114.614 305.727 115.25 305.727 116.162V119.93H306.891V116.054C306.891 115.202 307.515 114.614 308.403 114.614C309.183 114.614 309.723 115.25 309.723 116.162V119.93H310.887V115.982C310.887 114.578 309.951 113.582 308.655 113.582Z" fill="#6A7888"/>
<path d="M253.86 144.074C255.036 144.074 256.116 143.57 256.896 142.778L256.044 141.962C255.492 142.562 254.712 142.958 253.86 142.958C252.216 142.958 250.824 141.518 250.824 139.802C250.824 138.098 252.216 136.658 253.86 136.658C254.712 136.658 255.492 137.054 256.044 137.654L256.896 136.838C256.116 136.034 255.036 135.542 253.86 135.542C251.544 135.542 249.576 137.486 249.576 139.802C249.576 142.118 251.544 144.074 253.86 144.074ZM262.351 137.726V141.746C262.255 142.478 261.511 143.042 260.647 143.042C259.807 143.042 259.219 142.394 259.219 141.47V137.726H258.055V141.674C258.055 143.078 259.015 144.074 260.383 144.074C261.223 144.074 261.979 143.642 262.351 143.03V143.93H263.539V137.726H262.351ZM267.506 144.074C268.862 144.074 269.858 143.33 269.858 142.154C269.858 140.918 268.766 140.582 267.746 140.282C266.702 139.958 266.318 139.814 266.318 139.334C266.318 138.866 266.798 138.602 267.41 138.602C267.95 138.602 268.574 138.806 269.174 139.178L269.702 138.302C269.03 137.858 268.214 137.582 267.41 137.582C266.09 137.582 265.142 138.326 265.154 139.466C265.154 140.474 265.862 140.882 267.29 141.278C268.058 141.494 268.694 141.674 268.694 142.25C268.694 142.73 268.214 143.054 267.518 143.054C266.786 143.054 266.078 142.778 265.418 142.298L264.854 143.15C265.598 143.75 266.594 144.074 267.506 144.074ZM274.143 142.814C274.011 142.946 273.771 143.042 273.507 143.042C273.159 143.042 272.871 142.73 272.871 142.298V138.734H274.335V137.726H272.871V136.022H271.707V137.726H270.771V138.734H271.707V142.382C271.707 143.378 272.379 144.074 273.339 144.074C273.783 144.074 274.239 143.906 274.575 143.63L274.143 142.814ZM278.726 144.074C280.49 144.074 281.978 142.586 281.978 140.822C281.978 139.058 280.49 137.582 278.726 137.582C276.95 137.582 275.45 139.058 275.45 140.822C275.45 142.586 276.95 144.074 278.726 144.074ZM278.726 143.042C277.586 143.042 276.638 142.034 276.638 140.822C276.638 139.622 277.586 138.614 278.726 138.614C279.842 138.614 280.79 139.622 280.79 140.822C280.79 142.034 279.842 143.042 278.726 143.042ZM290.304 137.582C289.368 137.582 288.576 138.062 288.288 138.83C287.928 138.062 287.196 137.582 286.296 137.582C285.504 137.582 284.856 137.978 284.544 138.59V137.726H283.356V143.93H284.544V140.054C284.544 139.202 285.168 138.614 286.056 138.614C286.836 138.614 287.376 139.25 287.376 140.162V143.93H288.54V140.054C288.54 139.202 289.164 138.614 290.052 138.614C290.832 138.614 291.372 139.25 291.372 140.162V143.93H292.536V139.982C292.536 138.578 291.6 137.582 290.304 137.582ZM297.087 143.018C296.019 143.018 295.263 142.274 295.107 141.242H299.991C299.991 139.022 298.899 137.582 297.003 137.582C295.287 137.582 293.907 138.95 293.907 140.81C293.907 142.718 295.371 144.074 297.099 144.074C297.975 144.074 299.055 143.702 299.607 143.114L298.863 142.346C298.491 142.73 297.735 143.018 297.087 143.018ZM297.051 138.638C298.119 138.638 298.707 139.334 298.839 140.294H295.119C295.311 139.286 296.091 138.638 297.051 138.638ZM302.616 138.914V137.726H301.428V143.93H302.616V140.402C302.724 139.322 303.636 138.614 304.92 138.614V137.582C303.852 137.582 303.012 138.098 302.616 138.914ZM308.323 144.074C309.679 144.074 310.675 143.33 310.675 142.154C310.675 140.918 309.583 140.582 308.563 140.282C307.519 139.958 307.135 139.814 307.135 139.334C307.135 138.866 307.615 138.602 308.227 138.602C308.767 138.602 309.391 138.806 309.991 139.178L310.519 138.302C309.847 137.858 309.031 137.582 308.227 137.582C306.907 137.582 305.959 138.326 305.971 139.466C305.971 140.474 306.679 140.882 308.107 141.278C308.875 141.494 309.511 141.674 309.511 142.25C309.511 142.73 309.031 143.054 308.335 143.054C307.603 143.054 306.895 142.778 306.235 142.298L305.671 143.15C306.415 143.75 307.411 144.074 308.323 144.074Z" fill="#6A7888"/>
<path d="M27.278 35.0857C28.591 35.0857 29.787 34.5267 30.645 33.6297L29.501 32.5637C28.942 33.2007 28.149 33.6037 27.278 33.6037C25.627 33.6037 24.236 32.1737 24.236 30.4577C24.236 28.7547 25.627 27.3247 27.278 27.3247C28.136 27.3247 28.942 27.7277 29.488 28.3647L30.645 27.2857C29.787 26.4017 28.591 25.8427 27.278 25.8427C24.73 25.8427 22.585 27.9487 22.585 30.4577C22.585 32.9667 24.73 35.0857 27.278 35.0857ZM34.7716 28.0527C33.9266 28.0527 33.0426 28.2867 32.0936 28.7547L32.6396 29.8597C33.2116 29.5737 33.8226 29.3527 34.4596 29.3527C35.6816 29.3527 36.1106 30.1067 36.1106 30.8867V31.0687C35.4996 30.8347 34.8366 30.7047 34.2256 30.7047C32.7176 30.7047 31.4826 31.6147 31.4826 32.9407C31.4826 34.2407 32.5616 35.0857 33.9916 35.0857C34.7716 35.0857 35.6166 34.7477 36.1106 34.1237V34.9297H37.6576V30.8867C37.6576 29.1837 36.5526 28.0527 34.7716 28.0527ZM34.3426 33.9287C33.5886 33.9287 33.0296 33.5257 33.0296 32.8887C33.0296 32.2517 33.6666 31.8097 34.4596 31.8097C35.0576 31.8097 35.6166 31.9007 36.1106 32.0697V32.8237C35.9286 33.5387 35.1096 33.9287 34.3426 33.9287ZM41.8579 35.0857C43.4309 35.0857 44.4969 34.2537 44.4969 32.9667C44.4969 31.5627 43.2749 31.1727 42.1439 30.8607C41.1169 30.5617 40.7659 30.4317 40.7659 30.0027C40.7659 29.6257 41.1949 29.4047 41.7539 29.4047C42.3389 29.4047 43.0279 29.6127 43.6649 30.0157L44.3279 28.8587C43.5999 28.3777 42.6769 28.0527 41.7539 28.0527C40.2589 28.0527 39.2189 28.9107 39.2189 30.1717C39.2319 31.3677 40.1549 31.7837 41.6109 32.1607C42.3779 32.3687 42.9629 32.5377 42.9629 33.0577C42.9629 33.4737 42.5209 33.7467 41.8839 33.7467C41.0389 33.7467 40.2849 33.4347 39.6349 32.9667L38.9199 34.0717C39.7259 34.7217 40.8309 35.0857 41.8579 35.0857ZM49.5409 28.0527C48.6439 28.0527 47.8509 28.4817 47.4479 29.1317V25.8427H45.8619V34.9297H47.4479V30.8607C47.4479 30.0547 48.1889 29.4047 49.0859 29.4047C49.9179 29.4047 50.5029 30.0547 50.5029 30.9647V34.9297H52.0369V30.6527C52.0369 29.1317 51.0099 28.0527 49.5409 28.0527ZM61.8473 35.0857C63.1603 35.0857 64.3563 34.5267 65.2143 33.6297L64.0703 32.5637C63.5113 33.2007 62.7183 33.6037 61.8473 33.6037C60.1963 33.6037 58.8053 32.1737 58.8053 30.4577C58.8053 28.7547 60.1963 27.3247 61.8473 27.3247C62.7053 27.3247 63.5113 27.7277 64.0573 28.3647L65.2143 27.2857C64.3563 26.4017 63.1603 25.8427 61.8473 25.8427C59.2993 25.8427 57.1543 27.9487 57.1543 30.4577C57.1543 32.9667 59.2993 35.0857 61.8473 35.0857ZM69.6659 35.0857C71.6159 35.0857 73.2669 33.4737 73.2669 31.5627C73.2669 29.6517 71.6159 28.0527 69.6659 28.0527C67.7159 28.0527 66.0649 29.6517 66.0649 31.5627C66.0649 33.4737 67.7159 35.0857 69.6659 35.0857ZM69.6659 33.7337C68.5479 33.7337 67.6119 32.7457 67.6119 31.5627C67.6119 30.3927 68.5479 29.4047 69.6659 29.4047C70.7709 29.4047 71.7069 30.3927 71.7069 31.5627C71.7069 32.7457 70.7709 33.7337 69.6659 33.7337ZM74.6425 34.9297H76.2285V25.8427H74.6425V34.9297ZM77.9814 34.9297H79.5674V25.8427H77.9814V34.9297ZM84.4532 33.6817C83.4912 33.6817 82.7892 33.0317 82.5942 32.1087H87.6642C87.6642 29.6257 86.4552 28.0527 84.3752 28.0527C82.4642 28.0527 80.9562 29.5347 80.9562 31.5497C80.9562 33.6167 82.5422 35.0857 84.4662 35.0857C85.4412 35.0857 86.6112 34.6697 87.1962 34.0457L86.1952 33.0057C85.8182 33.3957 85.0772 33.6817 84.4532 33.6817ZM84.4402 29.4567C85.3892 29.4567 85.9612 30.0547 86.1432 30.8997H82.6072C82.8412 30.0157 83.5562 29.4567 84.4402 29.4567ZM92.276 35.0857C93.342 35.0857 94.239 34.6437 94.889 33.9547L93.823 33.0317C93.446 33.4607 92.874 33.7337 92.289 33.7337C91.184 33.7337 90.261 32.7457 90.261 31.5627C90.261 30.3927 91.184 29.4047 92.289 29.4047C92.861 29.4047 93.42 29.6777 93.784 30.0807L94.85 29.1447C94.213 28.4817 93.316 28.0527 92.302 28.0527C90.339 28.0527 88.688 29.6517 88.688 31.5627C88.688 33.4737 90.339 35.0857 92.276 35.0857ZM99.4896 33.4867C99.3466 33.6297 99.0996 33.7337 98.8266 33.7337C98.4496 33.7337 98.1636 33.4087 98.1636 32.9537V29.5217H99.6846V28.2087H98.1636V26.3627H96.6166V28.2087H95.6416V29.5217H96.6166V33.1487C96.6166 34.2797 97.3966 35.0857 98.5146 35.0857C99.0216 35.0857 99.5676 34.8777 99.9446 34.5527L99.4896 33.4867ZM104.309 33.6817C103.347 33.6817 102.645 33.0317 102.45 32.1087H107.52C107.52 29.6257 106.311 28.0527 104.231 28.0527C102.32 28.0527 100.812 29.5347 100.812 31.5497C100.812 33.6167 102.398 35.0857 104.322 35.0857C105.297 35.0857 106.467 34.6697 107.052 34.0457L106.051 33.0057C105.674 33.3957 104.933 33.6817 104.309 33.6817ZM104.296 29.4567C105.245 29.4567 105.817 30.0547 105.999 30.8997H102.463C102.697 30.0157 103.412 29.4567 104.296 29.4567ZM114.003 25.8427V29.2487C113.47 28.4947 112.664 28.0527 111.676 28.0527C109.895 28.0527 108.595 29.5087 108.595 31.5627C108.595 33.6297 109.895 35.0857 111.676 35.0857C112.664 35.0857 113.47 34.6437 114.003 33.8897V34.9297H115.589V25.8427H114.003ZM112.105 33.7337C110.974 33.7337 110.168 32.8237 110.168 31.5627C110.168 30.3017 110.974 29.4047 112.105 29.4047C113.223 29.4047 114.003 30.3017 114.003 31.5627C114.003 32.8237 113.223 33.7337 112.105 33.7337Z" fill="#575B5F"/>
<path d="M214.926 120.099C217.006 120.099 218.371 118.981 218.371 117.434C218.371 116.251 217.474 115.562 216.499 115.341C217.474 115.055 218.176 114.314 218.176 113.287C218.176 111.87 216.915 110.843 214.9 110.843C213.314 110.843 212.248 111.532 211.507 112.429L212.612 113.599C213.21 112.975 213.873 112.559 214.718 112.559C215.602 112.559 216.213 112.975 216.213 113.625C216.213 114.262 215.628 114.626 214.653 114.626L213.626 114.613V116.251H214.653C215.862 116.238 216.395 116.589 216.395 117.278C216.395 117.915 215.823 118.37 214.835 118.37C213.938 118.37 213.093 117.993 212.469 117.317L211.338 118.591C212.092 119.462 213.314 120.099 214.926 120.099ZM223.473 120.086C225.826 120.086 227.49 118.175 227.49 115.458C227.49 112.754 225.826 110.843 223.473 110.843C221.12 110.843 219.469 112.754 219.469 115.458C219.469 118.175 221.12 120.086 223.473 120.086ZM223.473 118.344C222.277 118.344 221.432 117.135 221.432 115.458C221.432 113.781 222.277 112.585 223.473 112.585C224.682 112.585 225.514 113.781 225.514 115.458C225.514 117.135 224.682 118.344 223.473 118.344Z" fill="#575B5F"/>
<path d="M230.47 143.93H232.394V134.999H230.86L228.182 136.793L228.949 138.145L230.47 137.196V143.93ZM237.452 144.086C239.415 144.086 241.04 143.163 241.04 141.538C241.04 140.511 240.338 139.731 239.285 139.315C240.182 138.925 240.819 138.275 240.819 137.274C240.819 135.74 239.233 134.843 237.452 134.843C235.71 134.843 234.098 135.701 234.098 137.274C234.098 138.288 234.735 138.938 235.619 139.315C234.592 139.705 233.864 140.485 233.864 141.538C233.864 143.15 235.476 144.086 237.452 144.086ZM237.452 138.652C236.75 138.6 236.009 138.21 236.009 137.521C236.009 136.91 236.594 136.455 237.452 136.455C238.31 136.455 238.908 136.91 238.908 137.521C238.908 138.184 238.154 138.6 237.452 138.652ZM237.452 142.474C236.503 142.474 235.814 142.006 235.814 141.33C235.814 140.628 236.685 140.186 237.452 140.16C238.219 140.186 239.103 140.628 239.103 141.33C239.103 142.006 238.401 142.474 237.452 142.474Z" fill="#575B5F"/>
<path d="M32.71 65.2217C32.71 62.9897 31.036 62.1797 28.498 61.6037V58.7237C29.344 58.9217 30.208 59.3357 30.982 59.9657L32.368 58.0577C31.324 57.1577 30.064 56.5637 28.498 56.4017V55.2677H26.752V56.3837C24.466 56.6717 22.954 58.1477 22.954 60.1997C22.954 62.3777 24.502 63.1877 26.752 63.7637V66.7517C25.708 66.5177 24.79 65.9957 23.944 65.2757L22.414 67.0937C23.584 68.1737 25.078 68.8577 26.752 69.0737V70.2617H28.498V69.1277C31.162 68.9297 32.71 67.4177 32.71 65.2217ZM25.636 59.9297C25.636 59.3537 26.05 58.8677 26.752 58.6877V61.1357C25.96 60.8657 25.636 60.5237 25.636 59.9297ZM28.498 66.8597V64.1957C29.596 64.5017 30.028 64.8257 30.028 65.5097C30.028 66.1757 29.506 66.7337 28.498 66.8597ZM38.8266 69.1637C41.7066 69.1637 43.5966 67.6157 43.5966 65.4737C43.5966 63.8357 42.3546 62.8817 41.0046 62.5757C42.3546 62.1797 43.3266 61.1537 43.3266 59.7317C43.3266 57.7697 41.5806 56.3477 38.7906 56.3477C36.5946 56.3477 35.1186 57.3017 34.0926 58.5437L35.6226 60.1637C36.4506 59.2997 37.3686 58.7237 38.5386 58.7237C39.7626 58.7237 40.6086 59.2997 40.6086 60.1997C40.6086 61.0817 39.7986 61.5857 38.4486 61.5857L37.0266 61.5677V63.8357H38.4486C40.1226 63.8177 40.8606 64.3037 40.8606 65.2577C40.8606 66.1397 40.0686 66.7697 38.7006 66.7697C37.4586 66.7697 36.2886 66.2477 35.4246 65.3117L33.8586 67.0757C34.9026 68.2817 36.5946 69.1637 38.8266 69.1637ZM50.8946 60.9377C49.7246 60.9377 48.6086 61.3697 47.8346 62.1077C48.0686 60.0197 49.1666 58.6877 50.7686 58.6877C51.7946 58.6877 52.5326 59.0657 53.2886 59.6957L54.5486 57.6797C53.5406 56.8697 52.2986 56.3477 50.7506 56.3477C47.3306 56.3477 45.0806 59.1017 45.0806 62.9537C45.0806 66.5537 46.7186 69.1457 50.3366 69.1457C53.0366 69.1457 55.0706 67.3997 55.0706 64.8617C55.0706 62.4137 53.1806 60.9377 50.8946 60.9377ZM50.1926 66.8957C48.8066 66.8957 48.1406 66.0497 47.9066 64.5377C48.2666 63.6557 49.0946 63.0977 50.1206 63.0977C51.3266 63.0977 52.3346 63.7997 52.3346 64.9877C52.3346 65.9777 51.5066 66.8957 50.1926 66.8957ZM58.303 71.5577C59.599 70.3157 60.211 69.1817 60.211 68.1197C60.211 66.8057 59.509 65.8697 58.501 65.8697C57.601 65.8697 56.881 66.6257 56.881 67.5257C56.881 68.4077 57.601 69.1457 58.465 69.1457C58.303 69.7217 57.925 70.3337 57.367 70.8377L58.303 71.5577ZM66.5825 69.1637C69.4625 69.1637 71.3525 67.6157 71.3525 65.4737C71.3525 63.8357 70.1105 62.8817 68.7605 62.5757C70.1105 62.1797 71.0825 61.1537 71.0825 59.7317C71.0825 57.7697 69.3365 56.3477 66.5465 56.3477C64.3505 56.3477 62.8745 57.3017 61.8485 58.5437L63.3785 60.1637C64.2065 59.2997 65.1245 58.7237 66.2945 58.7237C67.5185 58.7237 68.3645 59.2997 68.3645 60.1997C68.3645 61.0817 67.5545 61.5857 66.2045 61.5857L64.7825 61.5677V63.8357H66.2045C67.8785 63.8177 68.6165 64.3037 68.6165 65.2577C68.6165 66.1397 67.8245 66.7697 66.4565 66.7697C65.2145 66.7697 64.0445 66.2477 63.1805 65.3117L61.6145 67.0757C62.6585 68.2817 64.3505 69.1637 66.5825 69.1637ZM75.4825 68.9297H78.1465V56.5637H76.0225L72.3145 59.0477L73.3765 60.9197L75.4825 59.6057V68.9297ZM82.9532 68.9297H85.6172V56.5637H83.4932L79.7852 59.0477L80.8472 60.9197L82.9532 59.6057V68.9297ZM89.6499 69.1457C90.5319 69.1457 91.2519 68.3897 91.2519 67.4717C91.2519 66.6257 90.5319 65.8697 89.6499 65.8697C88.7139 65.8697 87.9759 66.6257 87.9759 67.4717C87.9759 68.3897 88.7139 69.1457 89.6499 69.1457ZM97.6606 69.1637C100.541 69.1637 102.431 67.6157 102.431 65.4737C102.431 63.8357 101.189 62.8817 99.8386 62.5757C101.189 62.1797 102.161 61.1537 102.161 59.7317C102.161 57.7697 100.415 56.3477 97.6246 56.3477C95.4286 56.3477 93.9526 57.3017 92.9266 58.5437L94.4566 60.1637C95.2846 59.2997 96.2026 58.7237 97.3726 58.7237C98.5966 58.7237 99.4426 59.2997 99.4426 60.1997C99.4426 61.0817 98.6326 61.5857 97.2826 61.5857L95.8606 61.5677V63.8357H97.2826C98.9566 63.8177 99.6946 64.3037 99.6946 65.2577C99.6946 66.1397 98.9026 66.7697 97.5346 66.7697C96.2926 66.7697 95.1226 66.2477 94.2586 65.3117L92.6926 67.0757C93.7366 68.2817 95.4286 69.1637 97.6606 69.1637ZM103.933 68.9297H113.275V66.5357H108.037L110.287 64.7897C112.447 63.2237 113.167 61.9457 113.167 60.2897C113.167 57.9677 111.259 56.3477 108.631 56.3477C106.633 56.3477 105.067 57.2117 103.843 58.7597L105.535 60.3977C106.435 59.3717 107.353 58.7597 108.559 58.7597C109.567 58.7597 110.431 59.3717 110.431 60.3977C110.431 61.2617 109.963 62.0717 108.487 63.2417L103.933 66.7697V68.9297Z" fill="#36AC7A"/>
<rect x="214.5" y="17.4297" width="97" height="27" rx="13.5" fill="white" stroke="#D4D7DC"/>
<path d="M295.832 32.6344L299.017 29.8034C299.361 29.4979 299.145 28.9297 298.685 28.9297H292.315C291.855 28.9297 291.639 29.4979 291.983 29.8034L295.168 32.6344C295.357 32.8028 295.643 32.8028 295.832 32.6344Z" fill="#6A7888"/>
<path d="M227.192 34.9297H228.404V27.8137H231.116V26.6857H224.492V27.8137H227.192V34.9297ZM235.614 28.5817C234.762 28.5817 234.006 29.0257 233.634 29.6497V26.5417H232.458V34.9297H233.634V31.0777C233.634 30.2737 234.414 29.6137 235.35 29.6137C236.19 29.6137 236.778 30.2617 236.778 31.1857V34.9297H237.942V30.9817C237.942 29.5777 236.982 28.5817 235.614 28.5817ZM240.229 27.6937C240.613 27.6937 240.937 27.3577 240.937 26.9737C240.937 26.6017 240.613 26.2657 240.229 26.2657C239.821 26.2657 239.509 26.6017 239.509 26.9737C239.509 27.3577 239.821 27.6937 240.229 27.6937ZM239.629 34.9297H240.817V28.7257H239.629V34.9297ZM244.78 35.0737C246.136 35.0737 247.132 34.3297 247.132 33.1537C247.132 31.9177 246.04 31.5817 245.02 31.2817C243.976 30.9577 243.592 30.8137 243.592 30.3337C243.592 29.8657 244.072 29.6017 244.684 29.6017C245.224 29.6017 245.848 29.8057 246.448 30.1777L246.976 29.3017C246.304 28.8577 245.488 28.5817 244.684 28.5817C243.364 28.5817 242.416 29.3257 242.428 30.4657C242.428 31.4737 243.136 31.8817 244.564 32.2777C245.332 32.4937 245.968 32.6737 245.968 33.2497C245.968 33.7297 245.488 34.0537 244.792 34.0537C244.06 34.0537 243.352 33.7777 242.692 33.2977L242.128 34.1497C242.872 34.7497 243.868 35.0737 244.78 35.0737ZM253.518 34.9297H254.61L256.11 30.3217L257.598 34.9297H258.69L260.778 28.7257H259.566L258.15 33.3457L256.614 28.7257H255.606L254.07 33.3457L252.642 28.7257H251.43L253.518 34.9297ZM264.517 34.0177C263.449 34.0177 262.693 33.2737 262.537 32.2417H267.421C267.421 30.0217 266.329 28.5817 264.433 28.5817C262.717 28.5817 261.337 29.9497 261.337 31.8097C261.337 33.7177 262.801 35.0737 264.529 35.0737C265.405 35.0737 266.485 34.7017 267.037 34.1137L266.293 33.3457C265.921 33.7297 265.165 34.0177 264.517 34.0177ZM264.481 29.6377C265.549 29.6377 266.137 30.3337 266.269 31.2937H262.549C262.741 30.2857 263.521 29.6377 264.481 29.6377ZM271.642 34.0177C270.574 34.0177 269.818 33.2737 269.662 32.2417H274.546C274.546 30.0217 273.454 28.5817 271.558 28.5817C269.842 28.5817 268.462 29.9497 268.462 31.8097C268.462 33.7177 269.926 35.0737 271.654 35.0737C272.53 35.0737 273.61 34.7017 274.162 34.1137L273.418 33.3457C273.046 33.7297 272.29 34.0177 271.642 34.0177ZM271.606 29.6377C272.674 29.6377 273.262 30.3337 273.394 31.2937H269.674C269.866 30.2857 270.646 29.6377 271.606 29.6377ZM281.563 28.7257H280.123L277.087 31.8937V26.5417H275.911V34.9297H277.087V33.3337L278.083 32.3257L280.027 34.9297H281.443L278.887 31.5337L281.563 28.7257Z" fill="#6A7888"/>
<rect x="22" y="107.93" width="50" height="22" rx="3" fill="#36AC7A" fill-opacity="0.1"/>
<path d="M44.47 123.93H46.394V114.999H44.86L42.182 116.793L42.949 118.145L44.47 117.196V123.93ZM51.4515 124.086C53.4145 124.086 55.0395 123.163 55.0395 121.538C55.0395 120.511 54.3375 119.731 53.2845 119.315C54.1815 118.925 54.8185 118.275 54.8185 117.274C54.8185 115.74 53.2325 114.843 51.4515 114.843C49.7095 114.843 48.0975 115.701 48.0975 117.274C48.0975 118.288 48.7345 118.938 49.6185 119.315C48.5915 119.705 47.8635 120.485 47.8635 121.538C47.8635 123.15 49.4755 124.086 51.4515 124.086ZM51.4515 118.652C50.7495 118.6 50.0085 118.21 50.0085 117.521C50.0085 116.91 50.5935 116.455 51.4515 116.455C52.3095 116.455 52.9075 116.91 52.9075 117.521C52.9075 118.184 52.1535 118.6 51.4515 118.652ZM51.4515 122.474C50.5025 122.474 49.8135 122.006 49.8135 121.33C49.8135 120.628 50.6845 120.186 51.4515 120.16C52.2185 120.186 53.1025 120.628 53.1025 121.33C53.1025 122.006 52.4005 122.474 51.4515 122.474ZM58.2118 119.484C59.5378 119.484 60.4478 118.483 60.4478 117.196C60.4478 115.935 59.5768 114.908 58.2248 114.908C56.8858 114.908 55.9888 115.922 55.9888 117.209C55.9888 118.483 56.8858 119.484 58.2118 119.484ZM57.1588 123.93H58.5368L64.7508 114.999H63.3728L57.1588 123.93ZM58.2248 118.366C57.6918 118.366 57.2758 117.898 57.2758 117.196C57.2758 116.494 57.6658 116.039 58.2118 116.039C58.7708 116.039 59.1738 116.507 59.1738 117.196C59.1738 117.911 58.7708 118.366 58.2248 118.366ZM63.6718 124.073C64.9718 124.073 65.8948 123.072 65.8948 121.785C65.8948 120.524 65.0108 119.497 63.6718 119.497C62.3458 119.497 61.4358 120.511 61.4358 121.785C61.4358 123.059 62.3328 124.073 63.6718 124.073ZM63.6718 122.942C63.1128 122.942 62.7098 122.474 62.7098 121.785C62.7098 121.07 63.0998 120.615 63.6718 120.615C64.2048 120.615 64.6208 121.083 64.6208 121.785C64.6208 122.487 64.2308 122.942 63.6718 122.942Z" fill="#36AC7A"/>
<path d="M30 122.93L36 116.93M36 116.93L36 121.43M36 116.93H31.5" stroke="#36AC7A" stroke-width="2" stroke-linecap="round" stroke-linejoin="round"/>
<rect x="202" y="106.93" width="112" height="16" rx="8" fill="#F6F7F9"/>
<rect x="222" y="131.93" width="92" height="16" rx="8" fill="#F6F7F9"/>
<defs>
<filter id="filter0_d_17160_803" x="0" y="0.929688" width="334" height="178" filterUnits="userSpaceOnUse" color-interpolation-filters="sRGB">
<feFlood flood-opacity="0" result="BackgroundImageFix"/>
<feColorMatrix in="SourceAlpha" type="matrix" values="0 0 0 0 0 0 0 0 0 0 0 0 0 0 0 0 0 0 127 0" result="hardAlpha"/>
<feOffset dy="2"/>
<feGaussianBlur stdDeviation="3.5"/>
<feColorMatrix type="matrix" values="0 0 0 0 0.415686 0 0 0 0 0.470588 0 0 0 0 0.533333 0 0 0 0.25 0"/>
<feBlend mode="normal" in2="BackgroundImageFix" result="effect1_dropShadow_17160_803"/>
<feBlend mode="normal" in="SourceGraphic" in2="effect1_dropShadow_17160_803" result="shape"/>
</filter>
</defs>
</svg>
